<svg id="Layer_1" data-name="Layer 1" xmlns="http://www.w3.org/2000/svg" width="237.29" height="96.86" viewBox="0 0 237.29 96.86"><path d="M74,25.82l7.35,4.32s-20.09,10-24.9,14.72-10.84,23-10.84,23q-3.23,15-9.1,22a18.89,18.89,0,0,1-15.22,7q-7.34,0-11.8-3.77A12.29,12.29,0,0,1,5,83.2a14.19,14.19,0,0,1,1.81-7,13.56,13.56,0,0,1,4.93-5.07,13.05,13.05,0,0,1,6.83-1.86,9.56,9.56,0,0,1,6.18,1.91,6.15,6.15,0,0,1,2.36,5A6,6,0,0,1,26,80a6.19,6.19,0,0,0-2.46-1.91,7.84,7.84,0,0,0-3.26-.7,6.5,6.5,0,0,0-4.93,2,7.28,7.28,0,0,0-1.91,5.22,7.41,7.41,0,0,0,1.86,5.23,6.11,6.11,0,0,0,4.68,2,7.51,7.51,0,0,0,6-3.12c1.68-2.07,2.95-5.16,3.82-9.24l5-22.21h-.41a18.37,18.37,0,0,1-6.58,5.83,18.14,18.14,0,0,1-8.49,2A17.34,17.34,0,0,1,9.14,62,19.59,19.59,0,0,1,2.36,53.1,35.33,35.33,0,0,1,0,39.69,42.41,42.41,0,0,1,4.82,19.54,36.81,36.81,0,0,1,18.09,5.22,34.63,34.63,0,0,1,36.68,0q8.53,0,13.51,3.72a12,12,0,0,1,5,10.14,10.68,10.68,0,0,1-2.11,6.94,6.75,6.75,0,0,1-5.52,2.61,8.12,8.12,0,0,1-3.57-.8A7.43,7.43,0,0,1,41.2,20.3a9.28,9.28,0,0,0,3.06-3.87,12.49,12.49,0,0,0,1.26-5.38,6.12,6.12,0,0,0-1.76-4.67,7,7,0,0,0-5-1.66Q33,4.72,27.53,9.9a37.4,37.4,0,0,0-8.74,13.51,46.91,46.91,0,0,0-3.32,17.48q0,7.55,2.42,11.51a7.64,7.64,0,0,0,6.93,4c3.62,0,5.87.52,9.6-2.38"/><path d="M55.86,72.75q-3.81-3.91-3.81-12.26a46.05,46.05,0,0,1,3-15.63A35.83,35.83,0,0,1,63.85,31a19.46,19.46,0,0,1,14-5.68c2.74,0,4.79.47,6.13,1.41a4.33,4.33,0,0,1,2,3.71v.71l1.1-5.33h14.47L94.35,60A12.27,12.27,0,0,0,94,63.2q0,4.32,4.12,4.32a6.07,6.07,0,0,0,4.87-2.61,19.66,19.66,0,0,0,3.26-6.83h4.22q-3.7,10.85-9.19,14.72a19,19,0,0,1-11,3.86,9.56,9.56,0,0,1-6.78-2.36,10.56,10.56,0,0,1-3.07-6.88A27.74,27.74,0,0,1,73.9,74.1a14.16,14.16,0,0,1-8.49,2.56A12.8,12.8,0,0,1,55.86,72.75Zm21.06-8.19a12.38,12.38,0,0,0,3.36-6.48L85.1,35.37a4.05,4.05,0,0,0-1-2.56A3.75,3.75,0,0,0,81,31.55q-4,0-7.23,4.67a37,37,0,0,0-5,11.26,44.25,44.25,0,0,0-1.81,11.6q0,5,1.45,6.43a5,5,0,0,0,3.57,1.41A7.29,7.29,0,0,0,76.92,64.56Z"/><path d="M112.83,25.82H127.3L126,32.05a39.37,39.37,0,0,1,6.18-4.62,11.64,11.64,0,0,1,5.38-1.59l.6,0A6.29,6.29,0,0,1,143.23,28a8,8,0,0,1,1.86,5.33,7.6,7.6,0,0,1-1.91,5.12,6.64,6.64,0,0,1-5.33,2.21c-1.47,0-2.46-.35-3-1a8.11,8.11,0,0,1-1.16-3.07,9.46,9.46,0,0,0-.6-1.91,1.12,1.12,0,0,0-1.1-.6,6.94,6.94,0,0,0-3.57.86,23.69,23.69,0,0,0-3.77,3l-8,38.18H102.18Z"/><path d="M180.67,73.4a11.82,11.82,0,0,1-2.86-8.09,26.33,26.33,0,0,1,.5-4.77c.34-1.78.69-3.5,1.06-5.18s.62-2.74.75-3.21q.81-3.52,1.51-6.93a28.72,28.72,0,0,0,.7-5.53c0-3.42-1.2-5.12-3.62-5.12a5.8,5.8,0,0,0-4.62,2.56,19.52,19.52,0,0,0-3.21,6.68L164,76.06H149.58l7.33-34.66a10.39,10.39,0,0,0,.3-2.51q0-4.43-3-4.43A6.12,6.12,0,0,0,149.32,37a19.13,19.13,0,0,0-3.26,6.78l-6.83,32.25H128.11l10.65-50.24-.46,11,10.47-5.79A15.9,15.9,0,0,1,161,25.32q8.83,0,10.35,8.64,5.52-8.54,14-8.54a11.46,11.46,0,0,1,8.13,2.81q3,2.82,3,8.54a33.77,33.77,0,0,1-.71,6.49c-.46,2.37-1.14,5.27-2,8.69Q193,55.06,192.33,58a22.67,22.67,0,0,0-.65,4.67,4.78,4.78,0,0,0,.9,3.11,3.8,3.8,0,0,0,3.11,1.11,6,6,0,0,0,4.83-2.16,25.69,25.69,0,0,0,3.62-6.68h4.21q-3.71,11-8.59,14.82a16.31,16.31,0,0,1-10.09,3.76Q183.54,76.66,180.67,73.4Z"/><path d="M209.06,74.81A12.18,12.18,0,0,1,204.14,70a12.67,12.67,0,0,1-1.61-6.18A10.62,10.62,0,0,1,204.08,58a9.56,9.56,0,0,1,3.77-3.57,126.51,126.51,0,0,0,6.83-14.22q2.92-7.18,5.53-15.52l14.87-2q.51,12.85,1.71,27.83.5,6,.5,8.74a15.68,15.68,0,0,1-3.11,10A17.54,17.54,0,0,1,226.49,75a26.53,26.53,0,0,1-9.29,1.7A16.41,16.41,0,0,1,209.06,74.81Zm11.15-8.29c1.68-1.48,2.51-3.86,2.51-7.14a82.08,82.08,0,0,0-.6-8.44q-1-11.46-1.31-15.37a116.3,116.3,0,0,1-8.13,19A3.8,3.8,0,0,1,215,58.08a5.16,5.16,0,0,1-1.26,3.41A3.93,3.93,0,0,1,210.57,63c-1.41,0-2.32-.44-2.72-1.31q0,3.61,1.46,5.33T214,68.73A9.1,9.1,0,0,0,220.21,66.52Z"/><path d="M141.5,39.77a9,9,0,0,0,6.85-2.93c3.35-3.35-.29-12-10.19-11S141.5,39.77,141.5,39.77Z"/><path d="M16.29,48.43a12.3,12.3,0,0,0,14.83,5.15c10.05-3.35,35.42-24.79,35.42-24.79L56.46,44.86,21.08,63.63Z"/><path d="M143.18,38.48s-10.76,6.29-19.54-1,1.26-4,1.26-4l14-2.81Z"/></svg>